<svg version="1.2" xmlns="http://www.w3.org/2000/svg" viewBox="0 0 218 52" width="218" height="52">
	<title>logo-mc</title>
	<style>
		.s0 { fill: #f8485e } 
		.s1 { fill: #888b8d } 
	</style>
	<g id="Exports">
		<g id="logo-mc">
			<path id="logo" fill-rule="evenodd" class="s0" d="m22.1 48.5c-0.4 0-0.8-0.1-1.1-0.4-0.4-0.5-10.9-11.5-15.6-19.2-2.5-4-3.3-8.4-3-12.5 0.4-4.7 2.5-8.5 6.3-11.1 4.7-3.3 12.8-3.8 20.1 2.3 0.9 0.8 2 1.6 2.7 2.2 0.8-0.6 1.9-1.5 2.7-2.2 7.6-6.2 15.5-5.7 20-2.4 8 5.8 8 16.4 3.4 23.7-3.2 5.3-6.3 9.3-9.7 12.8h-0.1c-3.2 3.4-6.6 6.8-12.1 6.8-7.2 0-12.6-5.1-12.6-11.9 0-5.6 4.1-11.7 10.7-11.7 3.6 0 6.9 1.7 8.4 4.3 0.2 0.3 0.3 0.8 0.2 1.1-0.1 0.4-0.4 0.8-0.7 1-0.4 0.2-0.8 0.2-1.2 0.1-0.4-0.1-0.7-0.3-0.9-0.7-0.8-1.2-2.7-2.7-5.8-2.7-4.7 0-7.7 4.4-7.7 8.6 0 4.4 3.3 8.9 9.6 8.9 4.2 0 6.9-2.7 10-5.9l0.1-0.1c3.2-3.2 6.1-7.1 9.2-12.2 5.3-8.5 2.2-16.1-2.6-19.6-4.9-3.6-11.8-1.3-16.2 2.3q-0.5 0.4-1 0.7-0.4 0.4-0.9 0.8-0.4 0.3-0.9 0.7-0.5 0.4-0.9 0.8-0.2 0.1-0.5 0.2-0.2 0.1-0.5 0.1-0.2 0-0.5-0.1-0.2-0.1-0.4-0.2c-0.1-0.1-2.1-1.6-3.7-3-4.3-3.6-11.3-5.8-16.5-2.2-6.8 4.7-6.2 13.4-2.4 19.5 4.6 7.4 15.1 18.6 15.2 18.7q0.4 0.3 0.4 0.7 0.1 0.5-0.1 0.9-0.1 0.4-0.5 0.7-0.4 0.2-0.9 0.2z"/>
			<filter id="f0">
				<feFlood flood-color="#ffffff" flood-opacity="1" />
				<feBlend mode="normal" in2="SourceGraphic"/>
				<feComposite in2="SourceAlpha" operator="in" />
			</filter>
			<g id="text" filter="url(#f0)">
				<path id="Fill-4" fill-rule="evenodd" class="s1" d="m71 32.6c0-0.6 0.5-1.1 1.1-1.1h0.2c0.5 0 0.9 0.2 1.1 0.6l3.8 6 3.9-6.1q0.3-0.5 1-0.5h0.3c0.6 0 1.1 0.5 1.1 1.1v10.6c0 0.7-0.5 1.1-1.1 1.1-0.6 0-1.2-0.5-1.2-1.1v-7.6l-3.1 4.7c-0.2 0.3-0.5 0.6-0.9 0.6-0.4 0-0.7-0.3-0.9-0.6l-3.1-4.7v7.7c0 0.6-0.5 1-1.1 1q-0.3 0.1-0.5 0-0.2-0.1-0.3-0.3-0.2-0.1-0.3-0.3 0-0.2 0-0.4c0 0 0-10.7 0-10.7z"/>
				<path id="Fill-6" fill-rule="evenodd" class="s1" d="m86 39.5c0-2.8 2.1-5 5.1-5 2.9 0 5.1 2.2 5.1 4.9v0.1c0 2.7-2.2 5-5.1 5-3 0-5.1-2.3-5.1-5zm8 0c0-1.7-1.2-3.1-2.9-3.1-1.8 0-2.9 1.4-2.9 3v0.1c0 1.6 1.2 3 2.9 3 1.8 0 2.9-1.3 2.9-3z"/>
				<path id="Fill-8" fill-rule="evenodd" class="s1" d="m98.9 41.6v-5.1h-0.4q-0.2 0-0.3 0-0.2-0.1-0.3-0.2-0.2-0.2-0.2-0.3-0.1-0.2-0.1-0.4c0-0.5 0.4-0.9 0.9-0.9h0.4v-1.7c0-0.6 0.5-1.1 1.1-1.1 0.6 0 1.1 0.5 1.1 1.1v1.7h1.7c0.5 0 1 0.4 1 0.9q0 0.2-0.1 0.4-0.1 0.1-0.2 0.3-0.1 0.1-0.3 0.2-0.2 0.1-0.4 0h-1.7v4.8c0 0.8 0.4 1.2 1.2 1.2 0.2 0 0.4-0.1 0.5-0.1 0.5 0 0.9 0.4 0.9 0.9 0 0.4-0.2 0.7-0.5 0.9q-0.2 0-0.4 0.1-0.2 0-0.4 0.1-0.2 0-0.4 0-0.2 0-0.3 0c-1.7 0-2.8-0.7-2.8-2.8z"/>
				<path id="Fill-10" fill-rule="evenodd" class="s1" d="m105.9 32c0-0.6 0.5-1.1 1.1-1.1 0.6 0 1.1 0.5 1.1 1.1v4.1c0.6-0.9 1.5-1.6 3-1.6 2.2 0 3.4 1.4 3.4 3.6v5.2c0 0.6-0.5 1-1.1 1-0.6 0-1.1-0.4-1.1-1v-4.5c0-1.5-0.7-2.3-2-2.3-1.3 0-2.2 0.8-2.2 2.3v4.5c0 0.6-0.5 1-1.1 1-0.6 0-1.1-0.4-1.1-1 0 0 0-11.3 0-11.3z"/>
				<path id="Fill-12" fill-rule="evenodd" class="s1" d="m121.6 44.5c-2.8 0-5-2-5-5 0-2.8 2-5 4.7-5 3.1 0 4.6 2.5 4.6 4.7 0 0.6-0.5 1-1 1h-6.1c0.3 1.6 1.4 2.5 2.8 2.5 0.9 0 1.7-0.4 2.3-0.9 0.1-0.1 0.3-0.2 0.5-0.2 0.5 0 0.9 0.4 0.9 0.9 0 0.3-0.1 0.5-0.3 0.7-0.8 0.8-1.9 1.3-3.4 1.3zm2.2-5.7c-0.2-1.4-1-2.5-2.5-2.5-1.3 0-2.3 1-2.5 2.5z"/>
				<path id="Fill-14" fill-rule="evenodd" class="s1" d="m128.2 35.7c0-0.7 0.4-1.2 1-1.2 0.7 0 1.2 0.5 1.2 1.2v0.9c0.5-1.2 1.4-2.1 2.4-2.1 0.7 0 1.1 0.5 1.1 1.1 0 0.6-0.4 1-0.9 1.1-1.6 0.2-2.6 1.4-2.6 3.7v2.9c0 0.6-0.5 1-1.2 1-0.6 0-1-0.4-1-1z"/>
				<path id="Fill-16" fill-rule="evenodd" class="s1" d="m136.2 35.7c0.8-0.3 1.3-0.9 1.2-1.7-0.5-0.1-1-0.5-1-1.2v-0.1c0-0.7 0.5-1.3 1.2-1.3 0.8 0 1.3 0.7 1.3 1.6v0.2c0 1.3-0.3 2.1-0.9 2.7-0.5 0.5-1.2 0.8-1.7 0.8-0.4 0-0.5-0.3-0.5-0.6 0-0.2 0.1-0.4 0.4-0.4z"/>
				<path id="Fill-18" fill-rule="evenodd" class="s1" d="m139.9 43.3c-0.2-0.1-0.4-0.4-0.4-0.8 0-0.5 0.4-0.9 0.9-0.9q0.3 0 0.5 0.2c0.9 0.6 1.9 0.9 2.8 0.9 0.9 0 1.4-0.4 1.4-1v-0.1c0-0.7-1-1-2.1-1.3-1.4-0.4-3-1-3-2.8v-0.1c0-1.8 1.5-2.9 3.4-2.9 1 0 2.1 0.3 3 0.8 0.3 0.1 0.6 0.4 0.6 0.8 0 0.5-0.4 0.9-0.9 0.9q-0.1 0-0.2 0 0 0-0.1 0 0 0-0.1-0.1 0 0-0.1 0c-0.8-0.4-1.6-0.7-2.2-0.7-0.9 0-1.4 0.4-1.4 1 0 0.7 1.1 1 2.2 1.4 1.4 0.4 3 1.1 3 2.8 0 2-1.6 3-3.6 3q-0.5 0-1 0-0.4-0.1-0.9-0.3-0.5-0.1-0.9-0.3-0.5-0.2-0.9-0.5z"/>
				<path id="Fill-20" fill-rule="evenodd" class="s1" d="m154.3 37.9h-0.1c0-3.6 2.8-6.6 6.6-6.6 2 0 3.3 0.6 4.4 1.5 0.2 0.1 0.4 0.4 0.4 0.8 0 0.7-0.5 1.1-1.1 1.1-0.3 0-0.5-0.1-0.7-0.2-0.8-0.7-1.8-1.1-3-1.1-2.4 0-4.2 2-4.2 4.5 0 2.5 1.8 4.5 4.2 4.5 1.3 0 2.2-0.4 3.2-1.2 0.1-0.2 0.4-0.3 0.6-0.3 0.6 0 1.1 0.5 1.1 1.1 0 0.3-0.2 0.6-0.4 0.8-1.2 1-2.5 1.7-4.6 1.7-3.7 0-6.4-2.9-6.5-6.6z"/>
				<path id="Fill-22" fill-rule="evenodd" class="s1" d="m168 32c0-0.6 0.4-1.1 1.1-1.1 0.6 0 1.1 0.5 1.1 1.1v4.1c0.6-0.9 1.5-1.6 3-1.6 2.1 0 3.4 1.4 3.4 3.6v5.2c0 0.6-0.5 1-1.1 1-0.6 0-1.1-0.4-1.1-1v-4.5c0-1.5-0.8-2.3-2.1-2.3-1.2 0-2.1 0.8-2.1 2.3v4.5c0 0.6-0.5 1-1.1 1-0.6 0-1.1-0.4-1.1-1 0 0 0-11.3 0-11.3z"/>
				<path id="Fill-24" fill-rule="evenodd" class="s1" d="m178.7 39.5c0-2.8 2.2-5 5.1-5 3 0 5.1 2.2 5.1 4.9v0.1c0 2.7-2.1 5-5.1 5-2.9 0-5.1-2.3-5.1-5zm8.1 0c0-1.7-1.3-3.1-3-3.1-1.8 0-2.9 1.4-2.9 3v0.1c0 1.6 1.2 3 2.9 3 1.8 0 2.9-1.3 3-3z"/>
				<path id="Fill-26" fill-rule="evenodd" class="s1" d="m191.3 35.7c0-0.7 0.5-1.2 1.1-1.2 0.6 0 1.1 0.5 1.1 1.2v7.6c0 0.6-0.5 1-1.1 1-0.6 0-1.1-0.4-1.1-1 0 0 0-7.6 0-7.6zm-0.2-3.6c0-0.7 0.6-1.1 1.3-1.1 0.7 0 1.3 0.4 1.3 1.1v0.1c0 0.6-0.6 1.1-1.3 1.1-0.7 0-1.3-0.5-1.3-1.1 0 0 0-0.1 0-0.1z"/>
				<path id="Fill-28" fill-rule="evenodd" class="s1" d="m195.9 39.5c0-2.8 2.1-5 5-5 1.5 0 2.5 0.4 3.3 1.2 0.2 0.1 0.4 0.4 0.4 0.7q0 0.2-0.1 0.4-0.1 0.2-0.2 0.3-0.2 0.2-0.4 0.3-0.2 0-0.4 0c-0.2 0-0.5-0.1-0.6-0.2-0.6-0.5-1.2-0.8-2.1-0.8-1.6 0-2.7 1.4-2.7 3v0.1c0 1.7 1.1 3 2.8 3 0.9 0 1.6-0.3 2.2-0.8q0-0.1 0.1-0.1 0.1 0 0.2-0.1 0 0 0.1 0 0.1 0 0.2 0c0.5 0 0.9 0.4 0.9 0.9q0 0.5-0.3 0.7c-0.8 0.8-1.9 1.4-3.5 1.4-2.8 0-4.9-2.3-4.9-5z"/>
				<path id="Fill-30" fill-rule="evenodd" class="s1" d="m210.9 44.5c-2.8 0-4.9-2-4.9-5 0-2.8 1.9-5 4.6-5 3.1 0 4.6 2.5 4.6 4.7 0 0.6-0.5 1-1 1h-6c0.2 1.6 1.3 2.5 2.7 2.5 0.9 0 1.7-0.4 2.3-0.9 0.2-0.1 0.3-0.2 0.6-0.2 0.4 0 0.8 0.4 0.8 0.9 0 0.3-0.1 0.5-0.3 0.7-0.8 0.8-1.9 1.3-3.4 1.3zm2.2-5.7c-0.2-1.4-1-2.5-2.5-2.5-1.3 0-2.3 1-2.5 2.5z"/>
				<path id="Fill-32" fill-rule="evenodd" class="s1" d="m92.1 11.2h5.9q0.3 0 0.5-0.2 0.2-0.3 0.3-0.6-0.1-0.3-0.3-0.6-0.2-0.2-0.5-0.2h-2.1l-0.4-1q-0.1-0.3-0.4-0.4-0.3-0.1-0.6 0-0.3 0.1-0.5 0.4-0.1 0.3 0 0.6l0.2 0.4h-2.1q-0.3 0-0.6 0.3-0.2 0.2-0.2 0.5 0 0.3 0.2 0.5 0.3 0.3 0.6 0.3z"/>
				<path id="Fill-34" fill-rule="evenodd" class="s1" d="m98.8 17.7q-0.1-0.2-0.1-0.3-0.1-0.2-0.2-0.3-0.1-0.1-0.2-0.2-0.2 0-0.3 0h-2.1 0.4q-0.1 0-0.2 0 0-0.1-0.1-0.1 0-0.1-0.1-0.2 0 0 0-0.1v-0.8c0-0.2 0.2-0.4 0.4-0.4h1.7q0.3 0 0.5-0.3 0.2-0.2 0.2-0.5 0-0.3-0.2-0.6-0.2-0.2-0.5-0.2h-0.7l0.3-1.1q0.1-0.3-0.1-0.6-0.1-0.2-0.4-0.3-0.3-0.1-0.6 0-0.3 0.2-0.4 0.5l-0.5 1.5h-1.1l-0.5-1.5q-0.1-0.3-0.4-0.5-0.2-0.1-0.5 0-0.4 0.1-0.5 0.3-0.2 0.3-0.1 0.6l0.4 1.1h-0.8q-0.3 0-0.5 0.2-0.3 0.3-0.3 0.6 0 0.3 0.3 0.5 0.2 0.3 0.5 0.3h1.8c0.3 0 0.4 0.2 0.4 0.4v0.8q0 0.1 0 0.1 0 0.1-0.1 0.2 0 0-0.1 0.1-0.1 0-0.2 0h-1.8q-0.3 0-0.5 0.2-0.3 0.3-0.3 0.6 0 0.3 0.3 0.5 0.2 0.2 0.5 0.3h1.5l-2 2.9q-0.2 0.3-0.1 0.6 0.1 0.3 0.3 0.5 0.3 0.2 0.6 0.1 0.3 0 0.5-0.3l1.4-2.1v3.8q0 0.3 0.3 0.5 0.2 0.2 0.5 0.2 0.3 0 0.6-0.2 0.2-0.2 0.2-0.5v-5.2c0-0.2 0.2-0.3 0.4-0.3h1.7q0.1 0 0.3-0.1 0.1-0.1 0.2-0.2 0.1-0.1 0.2-0.2 0-0.2 0.1-0.3z"/>
				<path id="Fill-36" fill-rule="evenodd" class="s1" d="m98.5 20.8l-0.5-1q-0.1-0.3-0.4-0.5-0.3-0.1-0.6 0.1-0.3 0.1-0.4 0.4-0.1 0.3 0 0.6l0.5 1q0.1 0.3 0.4 0.4 0.3 0.1 0.6 0 0.3-0.1 0.4-0.4 0.1-0.3 0-0.6z"/>
				<path id="Fill-38" fill-rule="evenodd" class="s1" d="m107.1 20.4q0.2 0.1 0.3 0.2 0.1 0.1 0.1 0.2 0.1 0.2 0.1 0.3v2.1c0 0.7-0.6 1.3-1.3 1.3h-1.7c-0.7 0-1.3-0.6-1.3-1.3v-3.8c0-0.2-0.2-0.4-0.4-0.4h-0.5c-0.2 3.7-2 5-3.4 5.7q-0.3 0.1-0.6 0-0.3-0.1-0.4-0.4-0.2-0.3-0.1-0.6 0.1-0.3 0.4-0.4c1.2-0.6 2.4-1.6 2.5-4.3h-0.6c-0.4 0-0.8-0.3-0.8-0.8v-8.7q0-0.1 0.1-0.3 0.1-0.1 0.2-0.2 0.1-0.1 0.2-0.2 0.2-0.1 0.3-0.1h5.9q0.1 0 0.3 0.1 0.1 0.1 0.2 0.2 0.1 0.1 0.2 0.2 0 0.2 0 0.3v8.7c0 0.5-0.3 0.8-0.7 0.8h-0.9c-0.2 0-0.3 0.2-0.3 0.4v3.1q0 0.1 0 0.1 0 0.1 0.1 0.2 0 0 0.1 0.1 0.1 0 0.2 0h0.3q0.1 0 0.2 0 0.1-0.1 0.1-0.1 0.1-0.1 0.1-0.2 0 0 0-0.1v-1.4q0-0.1 0.1-0.3 0.1-0.1 0.2-0.2 0.1-0.1 0.2-0.2 0.2-0.1 0.3-0.1 0.2 0 0.3 0.1zm-6.1-8.8q0 0.1 0 0.2 0.1 0.1 0.1 0.1 0.1 0.1 0.1 0.1 0.1 0 0.2 0h3.5q0.1 0 0.1 0 0.1 0 0.2-0.1 0 0 0.1-0.1 0-0.1 0-0.2v-0.9c0-0.2-0.2-0.4-0.4-0.4h-3.5c-0.2 0-0.4 0.2-0.4 0.4zm0 2.6q0.1 0.1 0.1 0.2 0.1 0 0.1 0.1 0.1 0 0.2 0h3.5q0.1 0 0.1 0 0.1-0.1 0.2-0.1 0-0.1 0.1-0.2 0 0 0-0.1v-0.5c0-0.2-0.2-0.4-0.4-0.4h-3.5c-0.2 0-0.4 0.2-0.4 0.4v0.5q0 0.1 0 0.1zm3.9 3.2q0.1 0 0.1 0 0.1 0 0.2-0.1 0-0.1 0.1-0.1 0-0.1 0-0.2v-0.9c0-0.2-0.2-0.4-0.4-0.4h-3.5c-0.2 0-0.4 0.2-0.4 0.4v0.9q0 0.1 0 0.2 0.1 0 0.1 0.1 0.1 0.1 0.1 0.1 0.1 0 0.2 0z"/>
				<path id="Fill-40" fill-rule="evenodd" class="s1" d="m174.2 21q0.2 0.2 0.2 0.4 0 0.3-0.2 0.5-0.2 0.2-0.5 0.2h-3.9v1.9q0 0.3-0.3 0.6-0.2 0.2-0.5 0.2-0.3 0-0.5-0.2-0.3-0.3-0.3-0.6v-1.9h-3.8q-0.3 0-0.5-0.2-0.2-0.2-0.2-0.5 0-0.2 0.2-0.4 0.2-0.2 0.5-0.2h3.4q0.1 0 0.2-0.1 0.1 0 0.1 0 0.1-0.1 0.1-0.2 0 0 0-0.1v-0.6h-2.6q-0.3 0-0.5-0.2-0.3-0.2-0.3-0.5 0-0.4 0.3-0.6 0.2-0.2 0.5-0.2h1l-0.5-1h-1.6q-0.3 0-0.6-0.2-0.2-0.2-0.2-0.5 0-0.3 0.2-0.6 0.3-0.2 0.6-0.2h3.4q0.1 0 0.2 0 0.1 0 0.1-0.1 0.1 0 0.1-0.1 0-0.1 0-0.2v-0.5h-2.8q-0.3 0-0.5-0.2-0.2-0.2-0.2-0.5 0-0.3 0.2-0.5 0.2-0.1 0.5-0.1h2.4q0.1 0 0.2-0.1 0.1 0 0.1 0 0.1-0.1 0.1-0.2 0 0 0-0.1v-0.6h-3.6c-0.5 0-0.8-0.3-0.8-0.7v-2.4c0-0.4 0.3-0.8 0.8-0.8h8.8q0.2 0 0.3 0.1 0.2 0 0.3 0.2 0.1 0.1 0.1 0.2 0.1 0.1 0.1 0.3v2.4c0 0.4-0.3 0.7-0.8 0.7h-3.6v0.6q0 0.1 0 0.1 0 0.1 0.1 0.2 0 0 0.1 0 0.1 0.1 0.1 0.1h2.4q0.2 0 0.4 0.1 0.2 0.2 0.2 0.5 0 0.3-0.2 0.5-0.2 0.2-0.4 0.2h-2.7v0.5q0 0.1 0 0.2 0 0.1 0.1 0.1 0 0.1 0.1 0.1 0.1 0 0.1 0h3.4q0.3 0 0.6 0.2 0.2 0.3 0.2 0.6 0 0.3-0.2 0.5-0.3 0.2-0.6 0.2h-1.5l-0.5 1h0.8q0.3 0 0.5 0.2 0.3 0.2 0.3 0.6 0 0.3-0.3 0.5-0.2 0.2-0.5 0.2h-2.6v0.6q0 0.1 0 0.1 0 0.1 0.1 0.2 0 0 0.1 0 0.1 0.1 0.2 0.1h3.5q0.3 0 0.5 0.2zm-7.3-9.7q0.1 0 0.1 0 0 0 0.1 0 0-0.1 0-0.1 0 0 0-0.1v-0.7c0-0.1-0.1-0.1-0.2-0.1h-1.3c-0.1 0-0.2 0-0.2 0.1v0.7q0 0.1 0 0.1 0 0 0.1 0.1 0 0 0 0 0.1 0 0.1 0zm1.6-1c-0.1 0-0.2 0-0.2 0.1v0.7q0 0.1 0 0.1 0 0 0.1 0.1 0 0 0 0 0.1 0 0.1 0h1.1q0.1 0 0.1 0 0 0 0.1 0 0-0.1 0-0.1 0 0 0-0.1v-0.6c0-0.2-0.1-0.2-0.2-0.2 0 0-1.1 0-1.1 0zm2.7 0c-0.1 0-0.2 0-0.2 0.1v0.7q0 0.1 0.1 0.1 0 0 0 0.1 0 0 0.1 0 0 0 0 0h1.4q0 0 0 0 0.1 0 0.1 0 0-0.1 0-0.1 0.1 0 0.1-0.1v-0.6c0-0.2-0.1-0.2-0.2-0.2 0 0-1.4 0-1.4 0zm-3.2 8h2.1l0.6-1h-3.2z"/>
				<path id="Fill-42" fill-rule="evenodd" class="s1" d="m161.8 13h0.6q0.3-0.1 0.6-0.3 0.2-0.2 0.2-0.5 0-0.3-0.2-0.5-0.3-0.3-0.6-0.3h-0.6q-0.1 0-0.2 0-0.1 0-0.1-0.1-0.1 0-0.1-0.1 0-0.1 0-0.2v-2.1q0-0.3-0.2-0.5-0.3-0.2-0.6-0.2-0.3 0-0.5 0.2-0.2 0.2-0.2 0.5v2.1q0 0.1-0.1 0.2 0 0.1-0.1 0.1 0 0.1-0.1 0.1-0.1 0-0.1 0h-1.1q-0.4 0-0.6 0.3-0.2 0.2-0.2 0.5 0 0.3 0.2 0.5 0.2 0.2 0.6 0.3h1.1c0.2 0 0.4 0.1 0.4 0.3v3.6l-1.7 0.6q-0.3 0.1-0.5 0.4-0.1 0.3 0 0.6 0.1 0.3 0.4 0.4 0.3 0.1 0.6 0l1.2-0.4v4.4c-0.1 0.2-0.1 0.2-0.3 0.2q-0.2 0-0.6-0.2-0.4-0.2-0.6-0.2-0.3 0-0.5 0.2-0.2 0.3-0.2 0.5 0 0.4 0.6 0.7 0.6 0.3 1.3 0.3c0.6 0 1.2-0.1 1.5-0.7 0 0 0.3-0.4 0.3-0.8v-4.9l1.3-0.5q0.3-0.1 0.4-0.4 0.1-0.3 0-0.6-0.1-0.3-0.3-0.4-0.3-0.1-0.6 0l-0.8 0.3v-3.1c0-0.2 0.2-0.3 0.4-0.3z"/>
				<path id="Fill-44" fill-rule="evenodd" class="s1" d="m147 17.4c-0.5 3.3-1.8 6.4-4.9 7.4q-0.3 0.1-0.6-0.1-0.3-0.1-0.4-0.4-0.1-0.3 0.1-0.6 0.1-0.3 0.4-0.4c2.1-0.7 3.3-2.5 3.8-5.9h-2.6q-0.3-0.1-0.5-0.3-0.2-0.2-0.3-0.5 0.1-0.3 0.3-0.6 0.2-0.2 0.5-0.2h2.8q0-0.4 0-0.7 0-0.4 0-0.7 0.1-0.4 0.1-0.8 0-0.3 0-0.7h-2.1q-0.3 0-0.6-0.2-0.2-0.2-0.2-0.6 0-0.3 0.2-0.5 0.3-0.2 0.6-0.2h1.7q0.1 0 0.1-0.1 0.1 0 0.2-0.1 0 0 0-0.1 0.1-0.1 0.1-0.1v-2.1q0-0.3 0.2-0.5 0.2-0.2 0.6-0.2 0.3 0 0.5 0.2 0.2 0.2 0.2 0.5v2.1q0 0 0.1 0.1 0 0.1 0.1 0.1 0 0.1 0.1 0.1 0.1 0.1 0.1 0.1h2.8q0.1 0 0.3 0 0.1 0.1 0.2 0.2 0.1 0.1 0.2 0.2 0.1 0.2 0.1 0.3v3.3q0 0.1 0 0.2 0 0 0.1 0.1 0 0 0.1 0.1 0.1 0 0.1 0h0.2q0.3 0 0.5 0.2 0.2 0.3 0.2 0.6 0 0.3-0.2 0.5-0.2 0.3-0.5 0.3c0 0-4.7 0-4.7 0zm0.1-1.6h2.1q0.1 0 0.1 0 0.1-0.1 0.2-0.1 0-0.1 0.1-0.1 0-0.1 0-0.2v-2.1c0-0.2-0.2-0.4-0.4-0.4h-2q0 1.4-0.1 2.9z"/>
				<path id="Fill-46" fill-rule="evenodd" class="s1" d="m152.1 23.4c-1.4-0.8-2.3-2.3-2.9-4.4q0-0.3-0.3-0.5-0.3-0.2-0.6-0.1-0.3 0.1-0.5 0.4-0.1 0.2-0.1 0.5c0.7 2.6 1.8 4.4 3.6 5.4q0.2 0.2 0.5 0.1 0.3-0.1 0.5-0.4 0.2-0.3 0.1-0.6-0.1-0.3-0.3-0.4z"/>
				<path id="Fill-48" fill-rule="evenodd" class="s1" d="m141.4 16.5q-0.1-0.1-0.2-0.2-0.1-0.1-0.2-0.2-0.2-0.1-0.3-0.1-0.2 0-0.3 0.1l-0.8 0.3v-3.1c0-0.2 0.2-0.3 0.4-0.3h0.6q0.4-0.1 0.6-0.3 0.2-0.2 0.2-0.5 0-0.3-0.2-0.5-0.2-0.3-0.6-0.3h-0.6q-0.1 0-0.2 0 0 0-0.1-0.1 0 0-0.1-0.1 0-0.1 0-0.2v-2.1q0-0.3-0.2-0.5-0.2-0.2-0.6-0.2-0.3 0-0.5 0.2-0.2 0.2-0.2 0.5v2.1q0 0.1-0.1 0.2 0 0.1 0 0.1-0.1 0.1-0.2 0.1 0 0-0.1 0h-1.1q-0.3 0-0.5 0.3-0.3 0.2-0.3 0.5 0 0.3 0.3 0.5 0.2 0.2 0.5 0.3h1.1c0.2 0 0.4 0.1 0.4 0.3v3.6l-1.7 0.6q-0.3 0.1-0.4 0.4-0.2 0.3-0.1 0.6 0.1 0.3 0.4 0.4 0.3 0.1 0.6 0l1.2-0.4v4.4c-0.1 0.2-0.1 0.2-0.3 0.2q-0.2 0-0.6-0.2-0.4-0.2-0.6-0.2-0.3 0-0.5 0.2-0.2 0.3-0.2 0.5 0 0.4 0.6 0.7 0.6 0.3 1.3 0.3c0.6 0 1.2-0.1 1.5-0.7 0 0 0.3-0.4 0.3-0.8v-4.9l1.3-0.5q0.1 0 0.3-0.1 0.1-0.1 0.1-0.3 0.1-0.1 0.1-0.3 0-0.1 0-0.3z"/>
				<path id="Fill-50" fill-rule="evenodd" class="s1" d="m85.1 21.2q0.2 0.2 0.2 0.5 0 0.3-0.2 0.5-0.2 0.3-0.6 0.3h-1q-0.4 2.3-3 2.3-1 0-2.3-0.4-1.3-0.3-1.5-0.5-0.1-0.1-0.1-0.4 0-0.2 0.2-0.5 0.2-0.2 0.4-0.2l0.8 0.2q1.7 0.5 2.5 0.5c0.9 0 1.4-0.4 1.6-1h-10.8q-0.1 0-0.1 0-0.1-0.1-0.1-0.1-0.1-0.1-0.1-0.2 0 0 0-0.1l0.2-5.3c0.1-0.2-0.1-0.4-0.3-0.4h-0.7q-0.3 0-0.5-0.2-0.2-0.3-0.2-0.6 0-0.3 0.2-0.5 0.2-0.2 0.5-0.3h0.8q0.1 0 0.1 0 0.1 0 0.1 0 0.1-0.1 0.1-0.1 0.1-0.1 0.1-0.1l0.3-5.5q0-0.1 0-0.1 0-0.1 0.1-0.1 0-0.1 0.1-0.1 0.1 0 0.1 0h0.5 10.3q0.2 0 0.3 0 0.2 0.1 0.3 0.2 0.1 0.1 0.2 0.3 0 0.1 0 0.3v4.9q0 0 0.1 0.1 0 0.1 0 0.1 0.1 0.1 0.2 0.1 0 0 0.1 0h0.4q0.3 0.1 0.6 0.3 0.2 0.2 0.2 0.5 0 0.3-0.2 0.6-0.3 0.2-0.6 0.2h-0.4c-0.2 0-0.4 0.2-0.4 0.4v3.7q0 0.1 0.1 0.2 0 0 0 0.1 0.1 0.1 0.2 0.1 0 0 0.1 0h0.5q0.4 0 0.6 0.3zm-11.6-10.9q-0.1 0-0.1 0.1-0.1 0-0.1 0-0.1 0.1-0.1 0.1-0.1 0.1-0.1 0.2l-0.2 3.8q0 0 0.1 0.1 0 0.1 0 0.1 0.1 0.1 0.1 0.1 0.1 0 0.2 0h8.4q0 0 0.1 0 0.1 0 0.1-0.1 0.1 0 0.1-0.1 0.1-0.1 0.1-0.1v-3.8c0-0.2-0.2-0.4-0.4-0.4 0 0-8.2 0-8.2 0zm-0.9 10.4q0.1 0 0.1 0.1 0.1 0.1 0.1 0.1 0.1 0 0.2 0h8.7q0 0 0.1 0 0.1 0 0.1-0.1 0.1-0.1 0.1-0.1 0.1-0.1 0.1-0.2v-3.7c0-0.2-0.2-0.4-0.4-0.4h-8.5c-0.2 0-0.4 0.2-0.4 0.4l-0.2 4.1v-0.4q0 0.1 0 0.2z"/>
				<path id="Fill-52" fill-rule="evenodd" class="s1" d="m77.3 17.5q-0.2-0.2-0.6-0.2-0.3 0-0.5 0.2-0.2 0.3-0.2 0.6 0 0.3 0.2 0.5l1.2 1.2q0.1 0.1 0.2 0.2 0.2 0 0.3 0 0.2 0 0.3 0 0.2-0.1 0.3-0.2 0.1-0.1 0.1-0.3 0.1-0.1 0.1-0.3 0-0.1-0.1-0.3 0-0.1-0.1-0.2z"/>
				<path id="Fill-54" fill-rule="evenodd" class="s1" d="m77.4 13.7q0.1 0.1 0.2 0.2 0.2 0.1 0.3 0.1 0.2 0 0.3-0.1 0.2-0.1 0.3-0.2 0.1-0.1 0.1-0.2 0.1-0.2 0.1-0.3 0-0.2-0.1-0.3 0-0.2-0.1-0.3l-1.2-1.1q-0.2-0.3-0.6-0.3-0.3 0-0.5 0.3-0.2 0.2-0.2 0.5 0 0.3 0.2 0.6z"/>
				<path id="Fill-56" fill-rule="evenodd" class="s1" d="m121.2 23.7q0 0 0 0 0 0.1 0 0.3-0.1 0.1-0.2 0.2-0.1 0.1-0.2 0.2-0.2 0.1-0.3 0.1h-5.2c-0.4 0-0.8-0.4-0.8-0.8v-11.6q0-0.2 0.1-0.3 0-0.2 0.2-0.3 0.1-0.1 0.2-0.1 0.2-0.1 0.3-0.1h1.6l1.1-2.7q0.1-0.3 0.4-0.4 0.3-0.1 0.6 0 0.3 0.1 0.4 0.4 0.2 0.3 0 0.6l-0.8 2.1h1.9q0.1 0 0.3 0.1 0.1 0 0.2 0.1 0.1 0.1 0.2 0.3 0 0.1 0 0.3zm-5.1-1q0 0 0 0.1 0.1 0 0.1 0.1 0 0 0.1 0h3.2q0.2-0.1 0.2-0.3v-3.5c0-0.2-0.2-0.4-0.4-0.4h-2.8c-0.2 0-0.4 0.2-0.4 0.4v3.5q0 0 0 0.1zm0-5.6q0 0.1 0 0.2 0.1 0.1 0.1 0.1 0.1 0.1 0.1 0.1 0.1 0 0.2 0h2.8q0.1 0 0.1 0 0.1 0 0.2-0.1 0 0 0-0.1 0.1-0.1 0.1-0.2v-3.8c0-0.2-0.2-0.4-0.4-0.4h-2.8c-0.2 0-0.4 0.2-0.4 0.4z"/>
				<path id="Fill-58" fill-rule="evenodd" class="s1" d="m129.6 20.7v-8.6q0-0.1-0.1-0.3 0-0.1-0.2-0.2-0.1-0.1-0.2-0.2-0.2 0-0.3 0h-3.7q0.2-0.8 0.2-1.8v-0.7q0-0.3-0.2-0.5-0.3-0.3-0.6-0.3-0.3 0-0.5 0.3-0.3 0.2-0.3 0.5v0.7c0 1.9-0.4 2.4-1.2 3.2q-0.3 0.2-0.3 0.5 0 0.3 0.2 0.6 0.2 0.2 0.5 0.2 0.3 0.1 0.6-0.1 0.6-0.5 1-1.1h3.5-0.4c0.2 0 0.4 0.2 0.4 0.4v7.4c0 1.5-0.5 2.7-2.2 2.7-0.5 0-0.7 0-1.8-0.5q-0.1 0-0.1 0 0 0-0.1 0 0 0-0.1 0 0-0.1 0-0.1-0.1 0-0.2 0.1-0.1 0-0.2 0 0 0.1-0.1 0.1-0.1 0.1-0.1 0.1-0.1 0.1-0.1 0.2-0.1 0-0.1 0.1 0 0.1 0 0.2-0.1 0.1-0.1 0.1 0 0.4 0.3 0.6c0 0 0.2 0.3 1.3 0.5 2.1 0.4 3.7 0.2 4.6-1.2 0.7-1 0.6-2.9 0.6-2.9z"/>
				<path id="Fill-60" fill-rule="evenodd" class="s1" d="m124.7 19.2q0.2 0.3 0.4 0.4 0.3 0.1 0.6-0.1 0.3-0.1 0.4-0.4 0.1-0.3-0.1-0.6l-1-2q-0.1-0.3-0.4-0.4-0.3-0.1-0.6 0.1-0.3 0.1-0.4 0.4-0.1 0.3 0.1 0.6z"/>
			</g>
		</g>
	</g>
</svg>